<svg width="21" height="20" viewBox="0 0 21 20" fill="none" xmlns="http://www.w3.org/2000/svg">
<path d="M19.8131 10.323C19.7725 10.4036 19.7325 10.5248 19.6513 10.606L17.227 13.0303C17.0652 13.1515 16.8634 13.2321 16.6616 13.2321C16.4597 13.2321 16.2573 13.1515 16.0961 12.9897C15.7731 12.6667 15.7731 12.1818 16.0961 11.8582L17.1464 10.8079H3.24763L4.29793 11.8582C4.62096 12.1812 4.62096 12.666 4.29793 12.9897C4.13611 13.1515 3.9343 13.2321 3.73248 13.2321C3.53066 13.2321 3.32824 13.1515 3.16702 12.9897L0.742781 10.5654C0.662174 10.4848 0.621568 10.4036 0.580962 10.2824C0.500356 10.0806 0.500356 9.87817 0.580962 9.67635C0.621568 9.59575 0.661568 9.47453 0.742781 9.39332L3.16702 6.96908C3.49005 6.64605 3.9749 6.64605 4.29854 6.96908C4.62217 7.29211 4.62157 7.77696 4.29854 8.10059L3.24823 9.1915H17.107L16.0567 8.1412C15.7337 7.81817 15.7337 7.33332 16.0567 7.00969C16.3798 6.68605 16.8646 6.68666 17.1882 7.00969L19.6125 9.43393C19.6931 9.51453 19.7337 9.59575 19.7743 9.71696C19.9361 9.87878 19.9361 10.1212 19.8149 10.323H19.8131Z" fill="#898E97"/>
</svg>
