<svg width="21" height="20" viewBox="0 0 21 20" fill="none" xmlns="http://www.w3.org/2000/svg">
<g clip-path="url(#clip0_85_3741)">
<path d="M16.95 6.39997L17.7833 5.56664L16.575 4.4083L15.7417 5.24164C14.086 3.88952 11.9741 3.22535 9.84252 3.38645C7.71098 3.54754 5.72286 4.52159 4.28923 6.10718C2.8556 7.69278 2.0861 9.76866 2.13984 11.9056C2.19359 14.0425 3.06646 16.0771 4.57799 17.5886C6.08951 19.1002 8.12408 19.973 10.261 20.0268C12.398 20.0805 14.4738 19.311 16.0594 17.8774C17.645 16.4438 18.6191 14.4556 18.7802 12.3241C18.9413 10.1926 18.2771 8.08063 16.925 6.42497L16.95 6.39997ZM10.5 18.3333C9.18145 18.3333 7.89251 17.9423 6.79619 17.2098C5.69986 16.4772 4.84537 15.436 4.34079 14.2179C3.83621 12.9997 3.70418 11.6592 3.96142 10.366C4.21865 9.07283 4.85359 7.88494 5.78594 6.95259C6.71829 6.02024 7.90618 5.3853 9.19939 5.12807C10.4926 4.87083 11.833 5.00286 13.0512 5.50744C14.2694 6.01203 15.3106 6.86651 16.0431 7.96284C16.7757 9.05916 17.1667 10.3481 17.1667 11.6666C17.1667 13.4347 16.4643 15.1304 15.214 16.3807C13.9638 17.6309 12.2681 18.3333 10.5 18.3333Z" fill="#898E97"/>
<path d="M14.6668 0.833313H6.3335V2.49998H14.6668V0.833313Z" fill="#898E97"/>
<path d="M11.3332 11.6667V6.66669H9.6665V13.3334H15.4998V11.6667H11.3332Z" fill="#898E97"/>
</g>
<defs>
<clipPath id="clip0_85_3741">
<rect width="20" height="20" fill="white" transform="translate(0.5)"/>
</clipPath>
</defs>
</svg>
